<svg xmlns="http://www.w3.org/2000/svg" width="1900" height="420" viewBox="0 0 1900 420" fill="none">
  <rect width="1900" height="420" fill="#f7fbff"/>
  <defs>
    <marker id="arrow" markerWidth="10" markerHeight="10" refX="9" refY="5" orient="auto-start-reverse">
      <path d="M0 0L10 5L0 10Z" fill="#5c677d"/>
    </marker>
  </defs>
  <g font-family="Segoe UI, Arial, sans-serif" font-size="13">
    <path d="M140 200H250" stroke="#5c677d" stroke-width="3" marker-end="url(#arrow)"/>
    <path d="M380 200H490" stroke="#5c677d" stroke-width="3" marker-end="url(#arrow)"/>
    <path d="M620 200H730" stroke="#5c677d" stroke-width="3" marker-end="url(#arrow)"/>
    <path d="M860 180H970" stroke="#2d6a4f" stroke-width="3" marker-end="url(#arrow)"/>
    <path d="M1100 180H1210" stroke="#2d6a4f" stroke-width="3" marker-end="url(#arrow)"/>
    <path d="M1340 180H1450" stroke="#2d6a4f" stroke-width="3" marker-end="url(#arrow)"/>
    <path d="M1580 180H1690" stroke="#2d6a4f" stroke-width="3" marker-end="url(#arrow)"/>
    <path d="M860 220H970" stroke="#9f4d00" stroke-width="3" marker-end="url(#arrow)"/>
    <path d="M1100 260H1210" stroke="#9f4d00" stroke-width="3" marker-end="url(#arrow)"/>
    <path d="M1340 240H1690" stroke="#9f4d00" stroke-width="3" marker-end="url(#arrow)"/>

    <rect x="20" y="160" width="120" height="80" rx="16" fill="#eef6ff" stroke="#0466c8" stroke-width="3"/>
    <text x="80" y="188" text-anchor="middle" fill="#0466c8">TRIGGER</text>
    <text x="80" y="210" text-anchor="middle" font-weight="700">Webhook</text>

    <rect x="250" y="160" width="130" height="80" rx="16" fill="#ecfff5" stroke="#0a7f4f" stroke-width="3"/>
    <text x="315" y="188" text-anchor="middle" fill="#0a7f4f">TRANSFORMER</text>
    <text x="315" y="210" text-anchor="middle" font-weight="700">Normalize</text>

    <rect x="490" y="160" width="130" height="80" rx="16" fill="#ecfff5" stroke="#0a7f4f" stroke-width="3"/>
    <text x="555" y="188" text-anchor="middle" fill="#0a7f4f">HTTP_REQUEST</text>
    <text x="555" y="210" text-anchor="middle" font-weight="700">Create Contact</text>

    <rect x="730" y="160" width="130" height="80" rx="16" fill="#fff6eb" stroke="#9f4d00" stroke-width="3"/>
    <text x="795" y="188" text-anchor="middle" fill="#9f4d00">CONDITION</text>
    <text x="795" y="210" text-anchor="middle" font-weight="700">Lead &gt; 70?</text>

    <rect x="970" y="140" width="130" height="80" rx="16" fill="#ecfff5" stroke="#0a7f4f" stroke-width="3"/>
    <text x="1035" y="168" text-anchor="middle" fill="#0a7f4f">NOTIFY</text>
    <text x="1035" y="190" text-anchor="middle" font-weight="700">Ops Alert</text>

    <rect x="1210" y="140" width="130" height="80" rx="16" fill="#ecfff5" stroke="#0a7f4f" stroke-width="3"/>
    <text x="1275" y="168" text-anchor="middle" fill="#0a7f4f">AI_EXTRACT</text>
    <text x="1275" y="190" text-anchor="middle" font-weight="700">CRM Fields</text>

    <rect x="1450" y="140" width="130" height="80" rx="16" fill="#ecfff5" stroke="#0a7f4f" stroke-width="3"/>
    <text x="1515" y="168" text-anchor="middle" fill="#0a7f4f">AGENT_EXECUTE</text>
    <text x="1515" y="190" text-anchor="middle" font-weight="700">CEO Review</text>

    <rect x="1690" y="140" width="130" height="80" rx="16" fill="#ecfff5" stroke="#0a7f4f" stroke-width="3"/>
    <text x="1755" y="168" text-anchor="middle" fill="#0a7f4f">CODE</text>
    <text x="1755" y="190" text-anchor="middle" font-weight="700">Approval Gate</text>

    <rect x="970" y="240" width="130" height="80" rx="16" fill="#ecfff5" stroke="#0a7f4f" stroke-width="3"/>
    <text x="1035" y="268" text-anchor="middle" fill="#0a7f4f">DELAY</text>
    <text x="1035" y="290" text-anchor="middle" font-weight="700">1h Follow-up</text>

    <rect x="1210" y="240" width="130" height="80" rx="16" fill="#ecfff5" stroke="#0a7f4f" stroke-width="3"/>
    <text x="1275" y="268" text-anchor="middle" fill="#0a7f4f">CODE</text>
    <text x="1275" y="290" text-anchor="middle" font-weight="700">Retry Plan</text>

    <rect x="1690" y="240" width="130" height="80" rx="16" fill="#ecfff5" stroke="#0a7f4f" stroke-width="3"/>
    <text x="1755" y="268" text-anchor="middle" fill="#0a7f4f">NOTIFY</text>
    <text x="1755" y="290" text-anchor="middle" font-weight="700">Close Loop</text>

    <text x="920" y="170" fill="#2d6a4f" font-weight="700">IF_TRUE</text>
    <text x="920" y="250" fill="#9f4d00" font-weight="700">IF_FALSE</text>
    <text x="40" y="40" font-size="24" font-weight="700" fill="#0f4c5c">BirthHub360 Workflow Canvas - fluxo manual complexo (10 nos)</text>
    <text x="40" y="68" font-size="15" fill="#52616b">Evidencia visual do editor com ramificacoes true/false, agente CEO, code nodes, delay e fechamento do loop.</text>
  </g>
</svg>
